<?xml version="1.0" encoding="iso-8859-1"?>
<!-- Generator: Adobe Illustrator 19.0.0, SVG Export Plug-In . SVG Version: 6.00 Build 0)  -->
<svg version="1.1" id="Layer_1" xmlns="http://www.w3.org/2000/svg" xmlns:xlink="http://www.w3.org/1999/xlink" x="0px" y="0px"
	 viewBox="0 0 512 512" style="enable-background:new 0 0 512 512;" xml:space="preserve">
<path style="fill:#B6E892;" d="M454.664,28.923c-1.075-9.667-8.049-17.647-17.487-20.008c-4.107-1.026-101.28-24.408-164.721,39.035
	c-6.105,6.105-11.59,12.721-16.454,19.822C256,67.772,256,67.77,256,67.77c-4.701-6.856-10.142-13.507-16.455-19.821
	c-36.417-36.42-84.086-44.063-117.662-44.063c-26.633,0-46.237,4.822-47.057,5.028c-9.439,2.36-16.413,10.339-17.487,20.008
	c-0.123,1.105-2.968,27.39-0.047,59.532c4.147,45.608,17.481,79.965,39.633,102.116c36.42,36.419,84.089,44.063,117.665,44.063
	c6.527,0,12.631-0.292,18.139-0.731v43.442c7.606-1.283,15.385-1.946,23.273-1.946s15.667,0.662,23.273,1.946v-43.421
	c5.5,0.436,11.605,0.725,18.157,0.725c34.576,0,81.569-8.001,117.647-44.079c22.153-22.151,35.488-56.509,39.633-102.116
	C457.633,56.314,454.786,30.025,454.664,28.923z"/>
<path style="fill:#A78966;" d="M376.996,345.297c-20.855-36.197-56.785-61.052-97.724-67.95c-7.605-1.283-15.385-1.946-23.273-1.946
	c-7.888,0-15.667,0.663-23.273,1.946c-40.941,6.898-76.868,31.753-97.724,67.95C60.144,347.75,0,409.412,0,484.856
	c0,12.854,10.42,23.273,23.273,23.273H256h232.727c12.853,0,23.273-10.418,23.273-23.273
	C512,409.412,451.855,347.75,376.996,345.297z"/>
<path style="fill:#7ED63E;" d="M256,67.772c-4.701-6.856-10.142-13.507-16.455-19.821c-36.417-36.42-84.086-44.063-117.662-44.063
	c-26.633,0-46.237,4.822-47.057,5.028c-9.439,2.361-16.413,10.339-17.487,20.008c-0.123,1.105-2.968,27.39-0.047,59.532
	c4.147,45.608,17.481,79.965,39.633,102.116c36.42,36.419,84.089,44.063,117.665,44.063c6.527,0,12.631-0.292,18.139-0.731v43.442
	c7.606-1.283,15.385-1.946,23.273-1.946V67.772H256z"/>
<path style="fill:#806749;" d="M232.727,277.347c-40.941,6.898-76.868,31.753-97.724,67.95C60.144,347.75,0,409.412,0,484.856
	c0,12.854,10.42,23.273,23.273,23.273H256V275.402C248.112,275.402,240.333,276.064,232.727,277.347z"/>
<g>
</g>
<g>
</g>
<g>
</g>
<g>
</g>
<g>
</g>
<g>
</g>
<g>
</g>
<g>
</g>
<g>
</g>
<g>
</g>
<g>
</g>
<g>
</g>
<g>
</g>
<g>
</g>
<g>
</g>
</svg>
