<?xml version="1.0" encoding="iso-8859-1"?>
<!-- Generator: Adobe Illustrator 19.0.0, SVG Export Plug-In . SVG Version: 6.00 Build 0)  -->
<svg version="1.1" id="Layer_1" xmlns="http://www.w3.org/2000/svg" xmlns:xlink="http://www.w3.org/1999/xlink" x="0px" y="0px"
	 viewBox="0 0 512 512" style="enable-background:new 0 0 512 512;" xml:space="preserve">
<g>
	<path style="fill:#9FB847;" d="M228.805,104.516c-27.994-33.677-75.438-49.893-118.188-40.396
		c-11.947,2.654-25.091,8.895-27.783,20.833c-2.099,9.303,3.069,18.693,9.158,26.034c15.322,18.469,39.645,32.614,64.762,32.482
		C186.138,143.315,207.657,122.22,228.805,104.516z"/>
	<path style="fill:#9FB847;" d="M245.23,43.081C273.224,9.404,320.668-6.812,363.418,2.685c11.946,2.654,25.091,8.895,27.783,20.833
		c2.099,9.303-3.069,18.693-9.158,26.034c-15.322,18.469-39.646,32.614-64.762,32.482C287.897,81.88,266.378,60.786,245.23,43.081z"
		/>
	<path style="fill:#9FB847;" d="M245.531,254.174c-31.806-30.103-80.844-40.551-122.159-26.028
		c-11.546,4.058-23.853,11.821-25.104,23.995c-0.975,9.488,5.274,18.196,12.195,24.758c17.412,16.512,43.249,27.659,68.171,24.535
		C207.791,297.781,226.643,274.273,245.531,254.174z"/>
	<path style="fill:#9FB847;" d="M246.341,180.394c23.782-36.772,68.957-58.525,112.534-54.188
		c12.177,1.212,25.972,5.843,30.068,17.375c3.193,8.988-0.82,18.926-5.991,26.94c-13.011,20.162-35.478,37.104-60.431,39.966
		C293.326,213.834,269.447,195.453,246.341,180.394z"/>
	<path style="fill:#9FB847;" d="M309.059,390.565c-38.907-20.101-88.92-16.538-124.585,8.874
		c-9.967,7.102-19.639,17.973-17.465,30.016c1.695,9.386,10.114,16.018,18.583,20.405c21.309,11.035,49.223,14.578,72.301,4.666
		C284.893,442.928,296.486,415.112,309.059,390.565z"/>
	<path style="fill:#9FB847;" d="M357.812,254.035c8.683-4,17.839-6.956,27.267-8.69c12.036-2.213,26.573-1.59,33.707,8.354
		c5.559,7.75,4.462,18.411,1.715,27.545c-6.91,22.981-23.795,45.489-46.976,55.159c-27.12,11.313-55.16,0.275-81.536-7.785
		c7.112-23.569,22.035-44.453,41.393-59.629"/>
</g>
<g>
	<path style="fill:#80A446;" d="M245.221,50.814c0.26,0,0.524-0.013,0.789-0.04l105.118-10.652c4.248-0.431,7.343-4.223,6.913-8.472
		c-0.43-4.247-4.202-7.349-8.471-6.913L244.451,35.389c-4.248,0.431-7.343,4.223-6.913,8.472
		C237.941,47.844,241.301,50.814,245.221,50.814z"/>
	<path style="fill:#80A446;" d="M223.216,113.019c3.837,0,7.164-2.854,7.66-6.76c0.537-4.236-2.462-8.106-6.697-8.643
		L122.751,84.758c-4.243-0.547-8.106,2.462-8.643,6.697c-0.537,4.236,2.462,8.106,6.697,8.643l101.427,12.858
		C222.563,113,222.892,113.019,223.216,113.019z"/>
	<path style="fill:#80A446;" d="M240.484,197.838c1.606,0,3.227-0.495,4.613-1.523c4.244-3.141,59.085-31.828,110.757-30.444
		c0.07,0.002,0.141,0.003,0.212,0.003c4.173,0,7.612-3.326,7.724-7.523c0.115-4.269-3.251-7.822-7.52-7.937
		c-57.15-1.549-115.624,29.912-120.45,33.529c-3.409,2.555-4.087,7.374-1.542,10.79
		C235.794,196.767,238.124,197.838,240.484,197.838z"/>
	<path style="fill:#80A446;" d="M251.487,262.153c4.283,0.21,7.887-3.089,8.091-7.354c0.203-4.266-3.088-7.887-7.354-8.091
		c-7.624-0.365-15.767-0.973-24.387-1.618c-32.684-2.448-69.733-5.22-97.17,4.321c-4.033,1.403-6.164,5.81-4.763,9.843
		c1.11,3.193,4.102,5.193,7.303,5.193c0.842,0,1.699-0.139,2.54-0.431c24.405-8.49,59.751-5.844,90.935-3.507
		C235.409,261.162,243.652,261.78,251.487,262.153z"/>
	<path style="fill:#80A446;" d="M395.33,275.413c-0.498-4.242-4.362-7.276-8.581-6.775c-27.086,3.186-78.571,33.307-102.017,59.683
		c-2.837,3.192-2.549,8.078,0.642,10.915c1.473,1.31,3.306,1.953,5.133,1.953c2.132,0,4.254-0.877,5.781-2.596
		c22.367-25.163,70.94-52.09,92.266-54.6C392.796,283.496,395.829,279.654,395.33,275.413z"/>
	<path style="fill:#80A446;" d="M316.414,384.258c-1.018-0.033-2.043-0.051-3.082-0.051c-44.14,0-106.516,29.956-109.208,31.261
		c-3.844,1.862-5.45,6.485-3.588,10.328c1.335,2.759,4.092,4.364,6.964,4.364c1.13,0,2.278-0.249,3.364-0.775
		c0.64-0.311,64.542-31.069,105.037-29.672c4.219,0.157,7.842-3.201,7.985-7.47C324.025,387.976,320.681,384.401,316.414,384.258z"
		/>
</g>
<path style="fill:#5F9043;" d="M421.905,512c-1.704,0-3.418-0.56-4.848-1.713c-36.341-29.308-68.652-63.695-96.037-102.205
	c-27.385-38.51-49.257-80.321-65.009-124.269c-15.752-43.947-25.42-90.132-28.735-137.27c-3.314-47.139-0.204-94.221,9.244-139.942
	c0.864-4.182,4.957-6.871,9.135-6.007c4.182,0.864,6.871,4.954,6.007,9.135c-9.161,44.336-12.176,90.001-8.961,135.728
	c3.215,45.727,12.592,90.522,27.867,133.138c15.274,42.616,36.489,83.167,63.055,120.524c26.566,37.358,57.903,70.71,93.141,99.131
	c3.324,2.681,3.845,7.548,1.165,10.871C426.402,511.016,424.164,512,421.905,512z"/>
<g>
	<path style="opacity:0.1;fill:#2E5D4B;enable-background:new    ;" d="M391.202,23.519c-2.523-11.189-14.228-17.374-25.523-20.291
		c-17.438,28.909-52.606,59.126-85.888,66.928c11.251,6.962,23.474,11.805,37.491,11.88c25.117,0.132,49.441-14.013,64.762-32.483
		C388.133,42.212,393.3,32.822,391.202,23.519z"/>
	<path style="opacity:0.1;fill:#2E5D4B;enable-background:new    ;" d="M388.942,143.581c-2.971-8.364-11.05-13.086-19.908-15.518
		c-17.678,31.411-57.264,65.319-93.269,70.965c14.37,7.919,29.649,13.422,46.754,11.46c24.954-2.861,47.419-19.804,60.431-39.966
		C388.122,162.507,392.135,152.568,388.942,143.581z"/>
	<path style="opacity:0.1;fill:#2E5D4B;enable-background:new    ;" d="M402.27,244.733c-0.435,1.182-0.841,2.367-1.233,3.512
		c-11.963,34.906-48.088,77.362-84.568,87.845c18.885,5.235,38.193,8.183,57.056,0.313c23.181-9.669,40.067-32.178,46.977-55.159
		c2.746-9.133,3.844-19.795-1.715-27.545C414.927,248.319,408.895,245.683,402.27,244.733z"/>
</g>
<g>
</g>
<g>
</g>
<g>
</g>
<g>
</g>
<g>
</g>
<g>
</g>
<g>
</g>
<g>
</g>
<g>
</g>
<g>
</g>
<g>
</g>
<g>
</g>
<g>
</g>
<g>
</g>
<g>
</g>
</svg>
